# MagicaVoxel @ Ephtracy

# group
o 

# material
mtllib magnet.mtl
usemtl palette

# normals
vn -1 0 0
vn 1 0 0
vn 0 0 1
vn 0 0 -1
vn 0 -1 0
vn 0 1 0

# texcoords
vt 0.841797 0.5
vt 0.919922 0.5

# verts
v -0.7 1.1 0.4
v -0.7 1.1 0.1
v -0.7 2.7 0.4
v -0.7 2.7 0.1
v -0.6 1 0.4
v -0.6 1 0.1
v -0.6 1.1 0.5
v -0.6 1.1 0.4
v -0.6 1.1 0.1
v -0.6 1.1 0
v -0.6 2.7 0.5
v -0.6 2.7 0.4
v -0.6 2.7 0.1
v -0.6 2.7 0
v -0.5 0.9 0.4
v -0.5 0.9 0.1
v -0.5 1 0.5
v -0.5 1 0.4
v -0.5 1 0.1
v -0.5 1 0
v -0.5 1.1 0.5
v -0.5 1.1 0.4
v -0.5 1.1 0.1
v -0.5 1.1 0
v 5.96046e-008 1.2 0.5
v 5.96046e-008 1.2 0.4
v 5.96046e-008 1.2 0.1
v 5.96046e-008 1.2 0
v 5.96046e-008 1.3 0.5
v 5.96046e-008 1.3 0.4
v 5.96046e-008 1.3 0.1
v 5.96046e-008 1.3 0
v 5.96046e-008 1.4 0.4
v 5.96046e-008 1.4 0.1
v 0.1 1.3 0.5
v 0.1 1.3 0.4
v 0.1 1.3 0.1
v 0.1 1.3 0
v 0.1 1.4 0.5
v 0.1 1.4 0.4
v 0.1 1.4 0.1
v 0.1 1.4 0
v 0.1 2.7 0.4
v 0.1 2.7 0.1
v 0.2 1.4 0.5
v 0.2 1.4 0.4
v 0.2 1.4 0.1
v 0.2 1.4 0
v 0.2 2.7 0.5
v 0.2 2.7 0.4
v 0.2 2.7 0.1
v 0.2 2.7 0
v -0.4 1.4 0.5
v -0.4 1.4 0.4
v -0.4 1.4 0.1
v -0.4 1.4 0
v -0.4 2.7 0.5
v -0.4 2.7 0.4
v -0.4 2.7 0.1
v -0.4 2.7 0
v -0.3 1.3 0.5
v -0.3 1.3 0.4
v -0.3 1.3 0.1
v -0.3 1.3 0
v -0.3 1.4 0.5
v -0.3 1.4 0.4
v -0.3 1.4 0.1
v -0.3 1.4 0
v -0.3 2.7 0.4
v -0.3 2.7 0.1
v -0.2 1.2 0.5
v -0.2 1.2 0.4
v -0.2 1.2 0.1
v -0.2 1.2 0
v -0.2 1.3 0.5
v -0.2 1.3 0.4
v -0.2 1.3 0.1
v -0.2 1.3 0
v -0.2 1.4 0.4
v -0.2 1.4 0.1
v 0.3 0.9 0.4
v 0.3 0.9 0.1
v 0.3 1 0.5
v 0.3 1 0.4
v 0.3 1 0.1
v 0.3 1 0
v 0.3 1.1 0.5
v 0.3 1.1 0.4
v 0.3 1.1 0.1
v 0.3 1.1 0
v 0.4 1 0.4
v 0.4 1 0.1
v 0.4 1.1 0.5
v 0.4 1.1 0.4
v 0.4 1.1 0.1
v 0.4 1.1 0
v 0.4 2.7 0.5
v 0.4 2.7 0.4
v 0.4 2.7 0.1
v 0.4 2.7 0
v 0.5 1.1 0.4
v 0.5 1.1 0.1
v 0.5 2.7 0.4
v 0.5 2.7 0.1
v -0.6 1.1 0.5
v -0.6 2.7 0.5
v -0.5 1 0.5
v -0.5 1.1 0.5
v -0.4 1.4 0.5
v -0.4 2.7 0.5
v -0.3 1.3 0.5
v -0.3 1.4 0.5
v -0.2 1.2 0.5
v -0.2 1.3 0.5
v -0.1 1 0.5
v -0.1 1.2 0.5
v 5.96046e-008 1.2 0.5
v 5.96046e-008 1.3 0.5
v 0.1 1.3 0.5
v 0.1 1.4 0.5
v 0.2 1.4 0.5
v 0.2 2.7 0.5
v 0.3 1 0.5
v 0.3 1.1 0.5
v 0.4 1.1 0.5
v 0.4 2.7 0.5
v -0.7 1.1 0.4
v -0.7 2.7 0.4
v -0.6 1 0.4
v -0.6 1.1 0.4
v -0.6 2.7 0.4
v -0.5 0.9 0.4
v -0.5 1 0.4
v -0.5 1.1 0.4
v -0.4 1.4 0.4
v -0.4 2.7 0.4
v -0.3 1.3 0.4
v -0.3 1.4 0.4
v -0.3 2.7 0.4
v -0.2 1.2 0.4
v -0.2 1.3 0.4
v -0.2 1.4 0.4
v -0.1 0.9 0.4
v -0.1 1 0.4
v -0.1 1.2 0.4
v -0.1 1.3 0.4
v 5.96046e-008 1.2 0.4
v 5.96046e-008 1.3 0.4
v 5.96046e-008 1.4 0.4
v 0.1 1.3 0.4
v 0.1 1.4 0.4
v 0.1 2.7 0.4
v 0.2 1.4 0.4
v 0.2 2.7 0.4
v 0.3 0.9 0.4
v 0.3 1 0.4
v 0.3 1.1 0.4
v 0.4 1 0.4
v 0.4 1.1 0.4
v 0.4 2.7 0.4
v 0.5 1.1 0.4
v 0.5 2.7 0.4
v -0.7 1.1 0.1
v -0.7 2.7 0.1
v -0.6 1 0.1
v -0.6 1.1 0.1
v -0.6 2.7 0.1
v -0.5 0.9 0.1
v -0.5 1 0.1
v -0.5 1.1 0.1
v -0.4 1.4 0.1
v -0.4 2.7 0.1
v -0.3 1.3 0.1
v -0.3 1.4 0.1
v -0.3 2.7 0.1
v -0.2 1.2 0.1
v -0.2 1.3 0.1
v -0.2 1.4 0.1
v -0.1 0.9 0.1
v -0.1 1 0.1
v -0.1 1.2 0.1
v -0.1 1.3 0.1
v 5.96046e-008 1.2 0.1
v 5.96046e-008 1.3 0.1
v 5.96046e-008 1.4 0.1
v 0.1 1.3 0.1
v 0.1 1.4 0.1
v 0.1 2.7 0.1
v 0.2 1.4 0.1
v 0.2 2.7 0.1
v 0.3 0.9 0.1
v 0.3 1 0.1
v 0.3 1.1 0.1
v 0.4 1 0.1
v 0.4 1.1 0.1
v 0.4 2.7 0.1
v 0.5 1.1 0.1
v 0.5 2.7 0.1
v -0.6 1.1 0
v -0.6 2.7 0
v -0.5 1 0
v -0.5 1.1 0
v -0.4 1.4 0
v -0.4 2.7 0
v -0.3 1.3 0
v -0.3 1.4 0
v -0.2 1.2 0
v -0.2 1.3 0
v -0.1 1 0
v -0.1 1.2 0
v 5.96046e-008 1.2 0
v 5.96046e-008 1.3 0
v 0.1 1.3 0
v 0.1 1.4 0
v 0.2 1.4 0
v 0.2 2.7 0
v 0.3 1 0
v 0.3 1.1 0
v 0.4 1.1 0
v 0.4 2.7 0
v -0.5 0.9 0.4
v -0.1 0.9 0.4
v 0.3 0.9 0.4
v -0.5 0.9 0.1
v -0.1 0.9 0.1
v 0.3 0.9 0.1
v -0.5 1 0.5
v -0.1 1 0.5
v 0.3 1 0.5
v -0.6 1 0.4
v -0.5 1 0.4
v -0.1 1 0.4
v 0.3 1 0.4
v 0.4 1 0.4
v -0.6 1 0.1
v -0.5 1 0.1
v -0.1 1 0.1
v 0.3 1 0.1
v 0.4 1 0.1
v -0.5 1 0
v -0.1 1 0
v 0.3 1 0
v -0.6 1.1 0.5
v -0.5 1.1 0.5
v 0.3 1.1 0.5
v 0.4 1.1 0.5
v -0.7 1.1 0.4
v -0.6 1.1 0.4
v -0.5 1.1 0.4
v 0.3 1.1 0.4
v 0.4 1.1 0.4
v 0.5 1.1 0.4
v -0.7 1.1 0.1
v -0.6 1.1 0.1
v -0.5 1.1 0.1
v 0.3 1.1 0.1
v 0.4 1.1 0.1
v 0.5 1.1 0.1
v -0.6 1.1 0
v -0.5 1.1 0
v 0.3 1.1 0
v 0.4 1.1 0
v -0.2 1.2 0.5
v -0.1 1.2 0.5
v 5.96046e-008 1.2 0.5
v -0.2 1.2 0.4
v -0.1 1.2 0.4
v 5.96046e-008 1.2 0.4
v -0.2 1.2 0.1
v -0.1 1.2 0.1
v 5.96046e-008 1.2 0.1
v -0.2 1.2 0
v -0.1 1.2 0
v 5.96046e-008 1.2 0
v -0.3 1.3 0.5
v -0.2 1.3 0.5
v 5.96046e-008 1.3 0.5
v 0.1 1.3 0.5
v -0.3 1.3 0.4
v -0.2 1.3 0.4
v -0.1 1.3 0.4
v 5.96046e-008 1.3 0.4
v 0.1 1.3 0.4
v -0.3 1.3 0.1
v -0.2 1.3 0.1
v -0.1 1.3 0.1
v 5.96046e-008 1.3 0.1
v 0.1 1.3 0.1
v -0.3 1.3 0
v -0.2 1.3 0
v 5.96046e-008 1.3 0
v 0.1 1.3 0
v -0.4 1.4 0.5
v -0.3 1.4 0.5
v 0.1 1.4 0.5
v 0.2 1.4 0.5
v -0.4 1.4 0.4
v -0.3 1.4 0.4
v -0.2 1.4 0.4
v 5.96046e-008 1.4 0.4
v 0.1 1.4 0.4
v 0.2 1.4 0.4
v -0.4 1.4 0.1
v -0.3 1.4 0.1
v -0.2 1.4 0.1
v 5.96046e-008 1.4 0.1
v 0.1 1.4 0.1
v 0.2 1.4 0.1
v -0.4 1.4 0
v -0.3 1.4 0
v 0.1 1.4 0
v 0.2 1.4 0
v -0.6 2.7 0.5
v -0.4 2.7 0.5
v 0.2 2.7 0.5
v 0.4 2.7 0.5
v -0.7 2.7 0.4
v -0.6 2.7 0.4
v -0.4 2.7 0.4
v -0.3 2.7 0.4
v 0.1 2.7 0.4
v 0.2 2.7 0.4
v 0.4 2.7 0.4
v 0.5 2.7 0.4
v -0.7 2.7 0.1
v -0.6 2.7 0.1
v -0.4 2.7 0.1
v -0.3 2.7 0.1
v 0.1 2.7 0.1
v 0.2 2.7 0.1
v 0.4 2.7 0.1
v 0.5 2.7 0.1
v -0.6 2.7 0
v -0.4 2.7 0
v 0.2 2.7 0
v 0.4 2.7 0

# faces
f 3/1/1 2/1/1 1/1/1
f 4/1/1 2/1/1 3/1/1
f 8/1/1 6/1/1 5/1/1
f 9/1/1 6/1/1 8/1/1
f 11/1/1 8/1/1 7/1/1
f 12/1/1 8/1/1 11/1/1
f 13/1/1 10/1/1 9/1/1
f 14/1/1 10/1/1 13/1/1
f 18/1/1 16/1/1 15/1/1
f 19/1/1 16/1/1 18/1/1
f 21/1/1 18/1/1 17/1/1
f 22/1/1 18/1/1 21/1/1
f 23/1/1 20/1/1 19/1/1
f 24/1/1 20/1/1 23/1/1
f 29/2/1 26/2/1 25/2/1
f 30/2/1 26/2/1 29/2/1
f 31/2/1 28/2/1 27/2/1
f 32/2/1 28/2/1 31/2/1
f 33/2/1 31/2/1 30/2/1
f 34/2/1 31/2/1 33/2/1
f 39/2/1 36/2/1 35/2/1
f 40/2/1 36/2/1 39/2/1
f 41/2/1 38/2/1 37/2/1
f 42/2/1 38/2/1 41/2/1
f 43/2/1 41/2/1 40/2/1
f 44/2/1 41/2/1 43/2/1
f 49/2/1 46/2/1 45/2/1
f 50/2/1 46/2/1 49/2/1
f 51/2/1 48/2/1 47/2/1
f 52/2/1 48/2/1 51/2/1
f 53/1/2 54/1/2 57/1/2
f 57/1/2 54/1/2 58/1/2
f 55/1/2 56/1/2 59/1/2
f 59/1/2 56/1/2 60/1/2
f 61/1/2 62/1/2 65/1/2
f 65/1/2 62/1/2 66/1/2
f 63/1/2 64/1/2 67/1/2
f 67/1/2 64/1/2 68/1/2
f 66/1/2 67/1/2 69/1/2
f 69/1/2 67/1/2 70/1/2
f 71/1/2 72/1/2 75/1/2
f 75/1/2 72/1/2 76/1/2
f 73/1/2 74/1/2 77/1/2
f 77/1/2 74/1/2 78/1/2
f 76/1/2 77/1/2 79/1/2
f 79/1/2 77/1/2 80/1/2
f 81/2/2 82/2/2 84/2/2
f 84/2/2 82/2/2 85/2/2
f 83/2/2 84/2/2 87/2/2
f 87/2/2 84/2/2 88/2/2
f 85/2/2 86/2/2 89/2/2
f 89/2/2 86/2/2 90/2/2
f 91/2/2 92/2/2 94/2/2
f 94/2/2 92/2/2 95/2/2
f 93/2/2 94/2/2 97/2/2
f 97/2/2 94/2/2 98/2/2
f 95/2/2 96/2/2 99/2/2
f 99/2/2 96/2/2 100/2/2
f 101/2/2 102/2/2 103/2/2
f 103/2/2 102/2/2 104/2/2
f 108/1/3 106/1/3 105/1/3
f 109/1/3 106/1/3 108/1/3
f 109/1/3 108/1/3 107/1/3
f 110/1/3 106/1/3 109/1/3
f 111/1/3 109/1/3 107/1/3
f 112/1/3 109/1/3 111/1/3
f 113/1/3 111/1/3 107/1/3
f 114/1/3 111/1/3 113/1/3
f 115/1/3 113/1/3 107/1/3
f 116/1/3 113/1/3 115/1/3
f 117/2/3 116/2/3 115/2/3
f 119/2/3 118/2/3 117/2/3
f 121/2/3 120/2/3 119/2/3
f 123/2/3 121/2/3 119/2/3
f 123/2/3 122/2/3 121/2/3
f 123/2/3 117/2/3 115/2/3
f 123/2/3 119/2/3 117/2/3
f 124/2/3 122/2/3 123/2/3
f 125/2/3 122/2/3 124/2/3
f 126/2/3 122/2/3 125/2/3
f 130/1/3 128/1/3 127/1/3
f 131/1/3 128/1/3 130/1/3
f 133/1/3 130/1/3 129/1/3
f 134/1/3 130/1/3 133/1/3
f 138/1/3 136/1/3 135/1/3
f 139/1/3 136/1/3 138/1/3
f 141/1/3 138/1/3 137/1/3
f 142/1/3 138/1/3 141/1/3
f 143/1/3 133/1/3 132/1/3
f 144/1/3 133/1/3 143/1/3
f 145/1/3 141/1/3 140/1/3
f 146/1/3 141/1/3 145/1/3
f 147/2/3 146/2/3 145/2/3
f 148/2/3 146/2/3 147/2/3
f 150/2/3 149/2/3 148/2/3
f 151/2/3 149/2/3 150/2/3
f 153/2/3 152/2/3 151/2/3
f 154/2/3 152/2/3 153/2/3
f 155/2/3 144/2/3 143/2/3
f 156/2/3 144/2/3 155/2/3
f 158/2/3 157/2/3 156/2/3
f 159/2/3 157/2/3 158/2/3
f 161/2/3 160/2/3 159/2/3
f 162/2/3 160/2/3 161/2/3
f 163/1/4 164/1/4 166/1/4
f 166/1/4 164/1/4 167/1/4
f 165/1/4 166/1/4 169/1/4
f 169/1/4 166/1/4 170/1/4
f 171/1/4 172/1/4 174/1/4
f 174/1/4 172/1/4 175/1/4
f 173/1/4 174/1/4 177/1/4
f 177/1/4 174/1/4 178/1/4
f 168/1/4 169/1/4 179/1/4
f 179/1/4 169/1/4 180/1/4
f 176/1/4 177/1/4 181/1/4
f 181/1/4 177/1/4 182/1/4
f 181/2/4 182/2/4 183/2/4
f 183/2/4 182/2/4 184/2/4
f 184/2/4 185/2/4 186/2/4
f 186/2/4 185/2/4 187/2/4
f 187/2/4 188/2/4 189/2/4
f 189/2/4 188/2/4 190/2/4
f 179/2/4 180/2/4 191/2/4
f 191/2/4 180/2/4 192/2/4
f 192/2/4 193/2/4 194/2/4
f 194/2/4 193/2/4 195/2/4
f 195/2/4 196/2/4 197/2/4
f 197/2/4 196/2/4 198/2/4
f 199/1/4 200/1/4 202/1/4
f 202/1/4 200/1/4 203/1/4
f 201/1/4 202/1/4 203/1/4
f 203/1/4 200/1/4 204/1/4
f 201/1/4 203/1/4 205/1/4
f 205/1/4 203/1/4 206/1/4
f 201/1/4 205/1/4 207/1/4
f 207/1/4 205/1/4 208/1/4
f 201/1/4 207/1/4 209/1/4
f 209/1/4 207/1/4 210/1/4
f 209/2/4 210/2/4 211/2/4
f 211/2/4 212/2/4 213/2/4
f 213/2/4 214/2/4 215/2/4
f 213/2/4 215/2/4 217/2/4
f 215/2/4 216/2/4 217/2/4
f 209/2/4 211/2/4 217/2/4
f 211/2/4 213/2/4 217/2/4
f 217/2/4 216/2/4 218/2/4
f 218/2/4 216/2/4 219/2/4
f 219/2/4 216/2/4 220/2/4
f 224/1/5 222/1/5 221/1/5
f 225/2/5 223/2/5 222/2/5
f 225/1/5 222/1/5 224/1/5
f 226/2/5 223/2/5 225/2/5
f 231/1/5 228/1/5 227/1/5
f 232/2/5 229/2/5 228/2/5
f 232/1/5 228/1/5 231/1/5
f 233/2/5 229/2/5 232/2/5
f 235/1/5 231/1/5 230/1/5
f 236/1/5 231/1/5 235/1/5
f 238/2/5 234/2/5 233/2/5
f 239/2/5 234/2/5 238/2/5
f 240/1/5 237/1/5 236/1/5
f 241/2/5 238/2/5 237/2/5
f 241/1/5 237/1/5 240/1/5
f 242/2/5 238/2/5 241/2/5
f 248/1/5 244/1/5 243/1/5
f 249/1/5 244/1/5 248/1/5
f 250/2/5 246/2/5 245/2/5
f 251/2/5 246/2/5 250/2/5
f 253/1/5 248/1/5 247/1/5
f 254/1/5 248/1/5 253/1/5
f 257/2/5 252/2/5 251/2/5
f 258/2/5 252/2/5 257/2/5
f 259/1/5 255/1/5 254/1/5
f 260/1/5 255/1/5 259/1/5
f 261/2/5 257/2/5 256/2/5
f 262/2/5 257/2/5 261/2/5
f 263/1/6 264/1/6 266/1/6
f 264/2/6 265/2/6 267/2/6
f 266/1/6 264/1/6 267/1/6
f 267/2/6 265/2/6 268/2/6
f 269/1/6 270/1/6 272/1/6
f 270/2/6 271/2/6 273/2/6
f 272/1/6 270/1/6 273/1/6
f 273/2/6 271/2/6 274/2/6
f 275/1/6 276/1/6 279/1/6
f 279/1/6 276/1/6 280/1/6
f 277/2/6 278/2/6 282/2/6
f 282/2/6 278/2/6 283/2/6
f 280/1/6 281/1/6 285/1/6
f 281/2/6 282/2/6 286/2/6
f 285/1/6 281/1/6 286/1/6
f 286/2/6 282/2/6 287/2/6
f 284/1/6 285/1/6 289/1/6
f 289/1/6 285/1/6 290/1/6
f 287/2/6 288/2/6 291/2/6
f 291/2/6 288/2/6 292/2/6
f 293/1/6 294/1/6 297/1/6
f 297/1/6 294/1/6 298/1/6
f 295/2/6 296/2/6 301/2/6
f 301/2/6 296/2/6 302/2/6
f 298/1/6 299/1/6 304/1/6
f 304/1/6 299/1/6 305/1/6
f 300/2/6 301/2/6 306/2/6
f 306/2/6 301/2/6 307/2/6
f 303/1/6 304/1/6 309/1/6
f 309/1/6 304/1/6 310/1/6
f 307/2/6 308/2/6 311/2/6
f 311/2/6 308/2/6 312/2/6
f 313/1/6 314/1/6 318/1/6
f 318/1/6 314/1/6 319/1/6
f 315/2/6 316/2/6 322/2/6
f 322/2/6 316/2/6 323/2/6
f 319/1/6 320/1/6 325/1/6
f 317/1/6 318/1/6 325/1/6
f 318/1/6 319/1/6 325/1/6
f 325/1/6 320/1/6 326/1/6
f 326/1/6 320/1/6 327/1/6
f 327/1/6 320/1/6 328/1/6
f 323/2/6 324/2/6 329/2/6
f 322/2/6 323/2/6 329/2/6
f 321/2/6 322/2/6 329/2/6
f 329/2/6 324/2/6 330/2/6
f 330/2/6 324/2/6 331/2/6
f 331/2/6 324/2/6 332/2/6
f 326/1/6 327/1/6 333/1/6
f 333/1/6 327/1/6 334/1/6
f 330/2/6 331/2/6 335/2/6
f 335/2/6 331/2/6 336/2/6
